<?xml version="1.0" encoding="UTF-8"?>
<svg xmlns="http://www.w3.org/2000/svg" width="1200" height="630" viewBox="0 0 1200 630">
  <defs>
    <linearGradient id="bg" x1="0" y1="0" x2="1" y2="1">
      <stop offset="0%" stop-color="#1a0b2e"/>
      <stop offset="100%" stop-color="#3d1b5c"/>
    </linearGradient>
    <linearGradient id="eleFill" x1="0" y1="0" x2="0" y2="1">
      <stop offset="0%" stop-color="#c084fc" stop-opacity="0.85"/>
      <stop offset="100%" stop-color="#c084fc" stop-opacity="0.05"/>
    </linearGradient>
  </defs>
  <rect width="1200" height="630" fill="url(#bg)"/>

  <g opacity="0.10" stroke="#c084fc" stroke-width="1" fill="none">
    <path d="M0,200 Q300,140 600,220 T1200,160"/>
    <path d="M0,280 Q300,220 600,300 T1200,240"/>
    <path d="M0,360 Q300,300 600,380 T1200,320"/>
    <path d="M0,440 Q300,380 600,460 T1200,400"/>
    <path d="M0,520 Q300,460 600,540 T1200,480"/>
  </g>

  <rect x="60" y="60" width="360" height="44" rx="22" fill="#c084fc" opacity="0.92"/>
  <text x="240" y="90" text-anchor="middle" font-family="system-ui, -apple-system, 'Noto Sans TC', sans-serif" font-size="22" font-weight="700" fill="#1a0b2e">YR 運動研究室 · 賽道分析</text>

  <text x="60" y="170" font-family="system-ui, -apple-system, 'Noto Sans TC', sans-serif" font-size="56" font-weight="800" fill="#f8fafc">2025 發發爾衛</text>
  <text x="60" y="240" font-family="system-ui, -apple-system, 'Noto Sans TC', sans-serif" font-size="44" font-weight="700" fill="#c084fc">Far Away 40K · 重山系</text>
  <text x="60" y="290" font-family="system-ui, -apple-system, 'Noto Sans TC', sans-serif" font-size="22" font-weight="500" fill="#cbd5e1">屋我尾山 × 大雪山 × 15 小時關門 × 2,793 m D+</text>

  <g font-family="system-ui, -apple-system, 'Noto Sans TC', sans-serif" fill="#f8fafc">
    <g>
      <rect x="60" y="340" width="130" height="110" rx="14" fill="#ffffff" fill-opacity="0.10" stroke="#c084fc" stroke-opacity="0.5"/>
      <text x="125" y="380" text-anchor="middle" font-size="15" fill="#94a3b8">總里程</text>
      <text x="125" y="418" text-anchor="middle" font-size="32" font-weight="800">43.39</text>
      <text x="125" y="440" text-anchor="middle" font-size="14" fill="#94a3b8">km</text>
    </g>
    <g>
      <rect x="205" y="340" width="130" height="110" rx="14" fill="#ffffff" fill-opacity="0.10" stroke="#c084fc" stroke-opacity="0.5"/>
      <text x="270" y="380" text-anchor="middle" font-size="15" fill="#94a3b8">總爬升</text>
      <text x="270" y="418" text-anchor="middle" font-size="32" font-weight="800">+2793</text>
      <text x="270" y="440" text-anchor="middle" font-size="14" fill="#94a3b8">m</text>
    </g>
    <g>
      <rect x="350" y="340" width="130" height="110" rx="14" fill="#ffffff" fill-opacity="0.10" stroke="#c084fc" stroke-opacity="0.5"/>
      <text x="415" y="380" text-anchor="middle" font-size="15" fill="#94a3b8">最高海拔</text>
      <text x="415" y="418" text-anchor="middle" font-size="32" font-weight="800">1760</text>
      <text x="415" y="440" text-anchor="middle" font-size="14" fill="#94a3b8">m</text>
    </g>
    <g>
      <rect x="60" y="470" width="420" height="100" rx="14" fill="#ffffff" fill-opacity="0.10" stroke="#c084fc" stroke-opacity="0.5"/>
      <text x="85" y="502" font-size="15" fill="#94a3b8">可跑路段 &lt;5% 坡度</text>
      <text x="85" y="546" font-size="38" font-weight="800" fill="#a7f3d0">25.1%</text>
      <text x="270" y="502" font-size="15" fill="#94a3b8">垂直爬升比 m/km</text>
      <text x="270" y="546" font-size="38" font-weight="800" fill="#fbbf24">64.4</text>
    </g>
  </g>

  <g>
    <rect x="600" y="310" width="580" height="310" rx="14" fill="#ffffff" fill-opacity="0.08" stroke="#c084fc" stroke-opacity="0.4"/>
    <text x="620" y="330" font-family="system-ui, -apple-system, 'Noto Sans TC', sans-serif" font-size="14" fill="#94a3b8">海拔剖面 (m)</text>
    <polygon points="620,560 620.0,544.7 621.1,545.1 621.9,545.3 622.8,545.6 623.6,545.8 624.0,546.2 625.1,546.7 625.5,547.3 625.8,547.9 626.2,548.2 626.7,548.4 627.2,548.6 627.6,548.7 628.6,548.6 629.4,548.5 629.8,548.4 630.4,548.2 631.3,547.9 632.1,547.5 632.5,547.0 632.9,546.5 633.4,546.0 634.5,545.8 635.4,545.5 636.6,545.1 636.9,544.8 637.5,544.6 638.6,544.5 638.9,544.5 639.4,544.6 640.0,544.6 640.7,544.5 641.2,544.3 642.2,544.2 642.5,544.3 643.2,544.6 643.7,544.9 644.2,545.2 645.0,545.3 645.8,545.4 646.3,545.1 646.4,544.7 646.9,544.0 647.2,543.0 647.7,541.6 648.0,540.0 648.5,538.1 649.0,536.0 649.4,534.0 649.7,532.2 650.1,530.2 650.5,528.2 650.8,526.1 651.2,523.6 651.7,521.1 652.0,518.9 652.4,517.0 653.1,515.5 653.4,514.2 653.7,513.3 654.2,512.7 654.5,512.3 655.1,512.3 655.5,512.5 655.9,512.5 656.3,512.3 656.6,511.6 657.0,510.8 657.4,509.8 657.6,508.7 658.1,507.8 658.5,506.8 658.8,506.0 659.2,505.4 659.5,504.9 660.0,504.5 660.3,503.9 660.6,502.9 661.0,501.4 661.3,499.6 661.7,497.2 662.3,494.6 662.7,491.4 663.0,488.2 663.3,484.7 663.7,481.3 664.3,477.6 664.7,474.0 665.2,470.5 665.6,467.0 666.3,463.4 666.8,459.8 667.1,456.0 667.6,452.1 668.1,448.4 668.6,445.0 668.9,441.9 669.3,438.9 669.9,435.9 670.9,433.0 671.7,430.5 672.2,428.2 672.7,425.8 673.3,423.2 673.6,420.5 673.9,417.8 674.7,414.9 675.5,411.9 676.2,409.0 676.7,405.8 677.6,402.5 678.3,399.5 678.7,396.1 679.3,392.8 679.7,389.2 680.0,385.7 680.6,382.2 681.0,378.6 681.7,375.2 682.3,371.9 682.7,368.7 683.4,365.8 683.8,362.8 684.2,360.0 684.6,357.4 685.1,354.2 685.8,351.0 686.2,348.1 686.6,345.5 687.6,343.2 688.8,341.6 689.2,340.5 689.7,340.0 690.5,340.1 691.2,341.4 691.6,343.4 692.1,345.6 692.5,347.8 693.0,350.0 693.5,351.9 694.2,353.7 694.5,355.1 694.9,356.3 695.2,357.2 696.0,358.3 696.4,359.6 696.8,361.3 697.4,363.4 698.1,365.6 698.8,368.1 699.3,370.7 699.8,373.5 700.2,376.0 700.6,378.0 701.2,379.2 701.9,379.9 702.4,380.2 702.8,379.9 703.3,378.9 703.8,377.6 704.1,375.5 704.5,373.2 705.0,371.2 705.6,369.4 706.7,367.8 707.3,366.1 708.0,365.1 708.7,364.3 709.2,364.1 709.5,364.6 710.1,365.6 711.0,366.3 711.7,367.3 712.5,368.6 712.9,370.8 713.4,372.6 713.9,374.4 715.1,376.3 716.2,378.6 716.7,380.9 717.5,383.2 718.6,385.0 719.3,385.9 720.2,385.6 720.7,385.2 721.5,384.9 721.9,383.6 722.4,381.7 722.8,379.5 723.3,377.1 724.0,375.1 724.4,373.4 725.2,371.7 725.8,370.1 726.4,369.0 727.0,368.2 727.8,367.2 728.3,366.2 728.7,365.5 729.2,365.0 729.6,364.5 729.9,364.4 730.2,364.5 730.4,364.6 730.8,365.0 731.2,366.5 731.6,368.2 732.0,369.7 732.4,371.0 733.1,372.3 733.6,373.8 733.9,375.3 734.2,376.7 734.6,378.0 734.7,378.8 735.0,379.8 735.2,381.2 735.5,382.7 735.6,384.5 735.8,386.3 736.2,387.9 736.5,389.6 736.9,391.2 737.2,392.8 737.3,394.4 737.5,396.0 737.7,397.4 738.1,398.7 738.5,400.0 738.8,401.5 739.1,402.6 739.4,403.5 739.7,404.2 739.9,405.0 740.3,405.9 740.7,407.0 741.1,407.7 741.5,408.3 741.8,408.7 742.1,409.1 742.5,409.6 742.8,410.2 743.2,410.7 743.6,411.4 744.1,411.7 744.5,411.9 745.0,412.1 745.3,412.4 745.7,413.1 746.0,414.0 746.5,414.7 746.9,415.2 747.3,415.7 747.6,416.6 748.1,418.0 748.5,419.4 749.0,420.7 749.3,421.7 750.0,422.7 750.3,423.8 750.8,425.1 751.1,426.2 751.6,427.0 751.9,427.4 752.3,427.8 752.5,428.0 752.8,428.6 753.2,429.2 753.6,429.8 753.9,430.4 754.4,431.1 754.7,432.0 755.0,432.9 755.1,433.9 755.4,435.3 755.7,436.5 756.2,437.7 756.5,438.7 756.9,439.7 757.2,440.6 757.6,441.4 758.0,442.2 758.4,443.1 758.7,443.7 759.1,443.9 759.5,444.0 760.1,443.8 760.5,443.7 761.2,443.7 761.5,443.6 761.9,443.7 762.4,443.6 762.9,443.4 763.4,443.9 763.5,445.0 763.9,445.9 764.1,447.0 764.4,447.9 765.0,448.6 765.2,449.4 765.6,450.5 766.1,451.4 766.6,452.2 767.1,452.5 767.4,453.1 767.7,453.5 768.0,454.1 768.2,454.9 768.3,455.7 768.5,456.8 768.6,457.9 769.0,458.8 769.3,459.9 769.7,461.1 770.2,462.4 770.6,463.7 771.1,465.1 771.6,466.5 772.0,467.7 772.3,469.0 772.8,470.6 773.3,471.8 773.8,472.9 774.0,474.0 774.6,475.0 774.9,476.1 775.4,476.8 775.8,477.7 775.9,479.0 776.2,480.1 776.6,481.5 776.9,483.2 777.4,484.5 777.6,485.4 778.0,486.1 778.4,487.0 778.9,487.8 779.3,488.3 779.8,488.9 780.2,489.3 780.5,489.5 781.2,489.8 781.6,490.6 782.0,491.7 782.5,493.0 782.9,494.6 783.2,496.2 783.6,498.1 784.0,500.0 784.5,501.6 784.8,503.4 785.1,505.1 785.5,506.6 785.8,508.1 786.2,509.1 786.6,510.3 787.0,511.5 787.4,512.7 787.7,514.1 788.2,515.5 788.6,516.8 788.9,517.8 789.3,518.4 790.0,519.3 790.5,519.7 790.9,519.8 791.2,520.1 791.7,520.5 792.0,520.9 792.4,521.8 792.9,522.7 793.2,523.5 793.5,524.4 793.9,525.7 794.3,527.3 794.9,528.8 795.2,530.2 795.6,531.6 796.2,532.9 796.6,534.2 796.9,535.8 797.3,537.3 797.6,538.4 798.0,539.5 798.3,540.6 798.6,541.6 799.2,542.6 799.6,543.5 800.1,544.3 800.5,545.0 800.7,545.9 801.2,546.9 801.7,547.9 802.2,548.6 802.5,549.3 803.1,549.9 803.6,550.4 804.2,550.7 804.7,551.2 805.1,551.5 805.5,551.8 805.9,551.8 806.3,551.8 806.8,551.7 807.2,551.4 807.7,551.2 808.3,550.9 808.8,550.4 809.4,549.7 809.8,549.1 810.0,548.4 810.5,547.5 810.9,546.6 811.3,545.7 811.6,544.8 812.0,544.0 812.5,543.2 813.0,542.1 813.3,541.0 813.7,539.9 814.1,538.7 814.5,537.6 814.9,536.1 815.2,534.6 815.6,533.2 815.9,532.0 816.6,530.7 816.9,529.3 817.4,528.0 817.7,526.6 818.0,525.1 818.4,524.2 818.8,523.4 819.1,522.6 819.6,521.7 820.0,521.0 820.4,520.6 820.9,520.3 821.3,519.8 821.8,519.4 822.2,518.6 822.7,517.8 823.1,516.8 823.3,515.6 823.5,513.9 823.7,512.3 823.8,510.3 824.1,508.6 824.4,506.9 824.8,505.2 825.2,503.5 825.4,501.8 825.5,500.0 825.7,498.5 826.1,496.3 826.3,494.6 826.7,492.6 826.9,490.5 827.8,489.0 828.7,487.6 829.5,486.2 829.9,485.2 830.6,484.0 830.9,483.1 831.6,482.5 832.1,482.4 832.7,481.8 833.2,480.7 833.7,479.6 834.1,479.0 834.9,478.2 835.3,477.6 835.9,477.4 836.4,476.5 837.1,475.7 838.2,475.5 839.0,475.2 839.6,475.4 840.5,475.1 841.0,474.5 841.8,474.6 842.7,474.7 843.4,475.3 844.0,476.1 844.4,476.8 845.3,478.0 846.1,478.7 846.5,479.6 846.9,480.4 847.2,481.2 848.5,482.4 848.9,483.6 849.8,484.7 850.5,485.9 851.3,487.3 851.7,488.6 852.1,490.0 852.5,491.8 853.1,493.5 853.6,494.2 854.7,494.4 855.5,494.8 855.8,495.1 856.2,495.5 857.1,495.6 857.9,496.1 858.3,496.2 858.7,496.5 860.0,497.1 860.6,498.0 860.9,499.0 861.5,500.2 862.0,501.5 862.6,502.6 863.6,503.6 864.4,504.8 864.9,505.8 865.8,506.5 866.2,507.4 866.6,508.2 866.9,508.8 867.4,509.2 868.1,509.9 868.6,510.5 869.2,510.9 870.1,511.8 870.7,512.8 871.5,513.5 872.1,514.0 872.4,514.1 872.9,513.9 873.4,513.8 873.9,513.4 874.2,513.0 874.6,512.3 875.0,511.4 875.6,510.2 876.1,509.1 876.5,508.3 876.9,508.0 877.4,507.5 877.9,507.2 878.2,506.6 878.8,506.1 879.0,505.8 879.1,505.7 879.4,505.6 879.8,505.4 880.2,505.3 880.4,505.3 880.7,505.8 881.3,506.4 881.7,507.1 882.0,508.1 882.4,509.4 882.7,511.1 883.0,512.8 883.1,513.8 883.6,515.1 884.0,516.6 884.4,518.3 884.8,519.8 884.9,521.2 885.4,522.3 885.9,523.2 886.3,524.1 886.6,525.6 887.0,527.1 887.4,528.2 888.0,529.4 888.4,531.0 888.7,532.7 888.9,534.6 889.2,536.6 889.7,538.8 890.0,541.0 890.4,543.3 890.8,545.6 891.2,547.6 891.7,549.3 892.6,550.9 893.2,552.2 893.8,553.2 894.3,554.0 894.9,554.7 895.5,555.1 896.0,555.4 896.4,555.9 896.9,556.4 897.3,556.9 897.8,557.4 898.1,557.9 898.4,558.4 898.8,558.8 899.8,559.2 900.8,559.6 901.2,559.8 901.7,559.9 902.1,560.0 903.0,559.9 903.8,559.5 904.2,559.0 904.6,558.5 905.2,558.2 906.1,557.8 906.4,557.3 906.8,556.7 907.4,556.0 908.0,555.5 908.6,555.1 909.1,555.0 909.7,554.9 910.2,554.6 911.2,554.5 912.3,554.6 913.6,554.9 913.9,555.3 914.6,555.7 915.0,555.9 915.9,556.0 916.7,555.9 917.0,555.8 917.5,555.4 918.1,555.0 918.7,554.7 919.1,554.5 919.5,554.5 919.9,554.8 920.4,555.2 921.0,555.5 921.5,556.0 922.3,556.5 922.6,557.1 923.6,557.5 924.1,557.8 924.5,557.9 925.3,557.6 925.7,557.2 926.1,556.8 926.4,556.4 926.8,556.1 927.2,555.6 927.9,555.1 928.3,554.2 928.9,553.2 929.7,552.2 930.0,551.4 930.4,550.3 930.9,549.0 931.2,547.4 931.8,545.8 932.4,543.8 933.3,541.8 933.7,540.1 934.0,538.3 935.0,536.5 935.6,534.9 935.9,533.4 936.1,532.0 936.5,530.6 936.8,529.4 937.1,528.2 937.4,527.1 937.5,526.2 937.9,525.2 938.2,523.9 938.6,522.8 939.0,521.6 939.4,520.4 939.8,519.2 940.1,518.1 940.4,516.9 940.7,515.4 941.1,514.1 941.4,513.0 941.7,511.6 941.9,510.5 942.0,509.4 942.3,508.2 942.5,507.2 942.8,506.0 943.0,504.7 943.3,503.3 943.6,502.1 944.0,500.8 944.4,499.4 944.7,497.9 945.0,496.8 945.4,495.7 945.7,495.0 945.8,494.7 946.0,494.2 946.4,493.6 946.9,493.4 947.3,493.6 947.7,493.9 948.0,494.5 948.3,495.0 948.6,495.3 949.0,495.4 949.3,495.9 949.6,496.5 950.0,497.1 950.5,497.2 950.8,497.0 951.1,496.6 951.5,496.5 951.8,496.6 952.0,496.6 952.6,496.1 953.0,495.4 953.3,494.2 953.7,493.2 954.2,492.0 954.5,490.5 954.7,488.3 955.1,485.7 955.4,482.8 955.7,480.4 956.1,477.8 956.3,475.1 956.6,472.3 956.7,469.4 956.9,466.6 957.2,463.9 957.5,461.4 957.8,459.1 958.2,457.1 958.4,455.3 958.7,453.8 959.1,452.3 959.6,451.0 960.0,449.7 960.3,448.4 960.8,447.0 961.0,445.8 961.4,444.3 961.8,442.9 962.3,441.5 962.7,440.2 963.1,439.2 963.4,438.6 963.8,438.0 964.1,437.8 964.5,437.6 964.9,437.5 965.2,437.5 965.7,437.5 966.1,437.4 966.5,437.5 966.9,437.8 967.2,438.4 967.8,439.2 968.4,440.0 968.8,441.2 969.2,442.6 969.6,444.4 970.0,446.9 970.4,449.5 970.7,452.3 971.1,455.2 971.6,458.4 971.9,461.5 972.2,464.4 972.6,467.3 973.1,470.3 973.2,472.8 973.5,475.0 973.8,477.2 974.2,479.2 974.4,480.8 974.7,482.5 975.1,484.2 975.5,485.4 975.8,486.1 976.1,486.5 976.3,486.7 976.7,486.8 977.0,486.8 977.4,486.9 977.5,486.8 977.9,486.8 978.3,487.0 978.7,487.7 979.0,488.9 979.5,490.3 979.8,491.6 980.1,492.7 980.6,493.5 980.9,494.1 981.2,494.5 981.6,494.9 981.9,495.2 982.3,495.4 982.6,495.7 982.9,496.4 983.2,497.2 983.5,498.4 983.8,499.7 984.3,501.3 984.5,502.9 984.9,504.6 985.2,506.1 985.5,507.5 985.6,508.5 985.8,509.8 986.1,510.9 986.5,512.2 986.9,513.3 987.2,514.7 987.5,516.2 987.8,517.7 988.2,518.9 988.6,520.0 989.0,521.2 989.1,522.4 989.5,523.5 989.6,524.7 990.0,525.8 990.3,526.7 990.7,527.7 991.0,528.7 991.5,530.0 991.8,531.4 992.2,532.7 992.7,534.3 993.4,536.1 994.2,537.9 994.8,539.8 995.2,541.6 996.1,543.7 996.7,545.6 997.3,547.4 997.6,549.0 998.1,550.3 998.5,551.4 998.8,552.1 999.5,552.9 1000.0,553.8 1000.4,554.7 1001.1,555.3 1001.4,555.7 1001.9,556.1 1002.2,556.5 1002.8,556.8 1003.3,557.4 1004.0,557.8 1004.4,557.8 1005.0,557.5 1005.9,556.9 1006.3,556.4 1006.9,555.9 1007.5,555.6 1008.6,555.3 1009.0,555.0 1009.4,554.8 1009.8,554.8 1010.2,554.9 1011.0,555.4 1011.5,555.8 1011.8,556.0 1012.7,556.0 1013.4,556.0 1013.8,555.8 1014.5,555.4 1015.0,555.0 1015.9,554.6 1017.0,554.5 1018.3,554.6 1018.9,554.8 1019.3,555.0 1020.1,555.1 1020.5,555.3 1021.2,555.9 1021.7,556.5 1022.1,557.2 1022.4,557.7 1023.3,558.1 1024.0,558.5 1024.4,558.9 1024.9,559.5 1025.7,559.9 1026.5,560.0 1027.0,559.9 1027.5,559.8 1027.9,559.6 1028.9,559.2 1029.9,558.8 1030.3,558.4 1030.7,557.9 1030.9,557.4 1031.3,556.9 1031.7,556.5 1032.0,555.9 1032.7,555.4 1033.1,555.1 1033.5,554.8 1034.2,554.1 1034.6,553.2 1035.5,552.6 1036.1,552.4 1036.8,552.3 1037.3,552.3 1037.7,551.9 1038.6,551.5 1039.2,551.0 1039.8,550.8 1040.2,550.8 1040.5,550.6 1040.8,550.3 1041.2,549.7 1042.3,549.3 1042.7,549.4 1043.5,549.4 1044.0,549.2 1044.7,549.0 1045.2,548.2 1045.8,547.3 1046.2,546.2 1046.5,544.7 1047.3,542.9 1047.5,541.0 1047.9,538.9 1048.6,536.8 1049.0,534.6 1049.3,532.6 1049.6,530.7 1049.9,528.6 1050.3,526.4 1050.7,524.3 1051.0,522.4 1051.3,520.6 1051.7,518.9 1052.2,517.4 1052.9,516.1 1053.4,514.9 1053.7,514.0 1054.3,513.4 1055.2,512.8 1055.7,511.8 1056.6,510.9 1057.2,510.5 1057.7,509.9 1058.4,509.2 1058.9,508.8 1059.3,508.2 1059.6,507.4 1060.0,506.5 1060.9,505.8 1061.4,504.8 1062.2,503.6 1063.2,502.6 1063.9,501.5 1064.3,500.3 1064.9,499.2 1065.3,498.1 1065.6,497.2 1067.0,496.6 1067.4,496.2 1067.9,496.1 1068.7,495.6 1069.3,495.4 1069.8,495.1 1070.2,494.7 1071.0,494.3 1072.2,494.0 1072.7,493.4 1073.3,491.8 1073.7,490.0 1074.1,488.6 1074.4,487.3 1075.3,486.2 1076.0,484.9 1076.9,483.8 1077.2,482.7 1078.4,481.6 1078.9,480.9 1079.3,480.1 1079.7,479.2 1080.4,478.4 1081.3,477.1 1081.7,476.4 1082.5,475.6 1082.9,474.9 1084.0,474.6 1084.9,474.7 1085.3,475.1 1086.3,475.6 1086.8,475.4 1087.4,475.7 1088.5,475.8 1089.1,476.7 1089.9,477.7 1090.5,477.8 1091.0,478.3 1091.7,479.1 1092.1,479.6 1092.7,480.7 1093.1,481.8 1093.5,482.3 1094.2,482.5 1094.9,483.0 1095.3,483.9 1095.9,484.9 1096.3,485.8 1097.1,487.1 1098.1,488.4 1098.7,489.7 1098.9,491.6 1099.1,493.6 1099.3,495.2 1099.5,497.1 1099.7,499.0 1099.9,500.5 1100.3,502.1 1100.6,503.8 1100.8,505.5 1101.1,507.1 1101.4,508.7 1101.8,510.4 1101.9,512.1 1102.1,513.7 1102.3,515.3 1102.5,516.6 1102.8,517.6 1103.1,518.3 1103.9,519.1 1104.4,519.5 1104.8,519.8 1105.1,520.1 1105.6,520.5 1105.9,520.9 1106.3,521.8 1106.7,522.7 1107.1,523.5 1107.4,524.4 1107.8,525.7 1108.2,527.3 1108.7,528.8 1109.1,530.2 1109.5,531.6 1110.1,532.9 1110.5,534.2 1110.7,535.8 1111.1,537.3 1111.5,538.4 1111.9,539.5 1112.2,540.6 1112.5,541.6 1113.1,542.6 1113.5,543.5 1114.0,544.3 1114.4,545.0 1114.6,545.9 1115.1,546.9 1115.6,547.9 1116.1,548.6 1116.4,549.3 1117.0,549.9 1117.5,550.4 1118.0,550.7 1118.5,550.9 1119.0,551.1 1119.4,551.2 1119.9,551.1 1120.0,550.9 1120,560" fill="url(#eleFill)"/>
    <polyline points="620.0,544.7 621.1,545.1 621.9,545.3 622.8,545.6 623.6,545.8 624.0,546.2 625.1,546.7 625.5,547.3 625.8,547.9 626.2,548.2 626.7,548.4 627.2,548.6 627.6,548.7 628.6,548.6 629.4,548.5 629.8,548.4 630.4,548.2 631.3,547.9 632.1,547.5 632.5,547.0 632.9,546.5 633.4,546.0 634.5,545.8 635.4,545.5 636.6,545.1 636.9,544.8 637.5,544.6 638.6,544.5 638.9,544.5 639.4,544.6 640.0,544.6 640.7,544.5 641.2,544.3 642.2,544.2 642.5,544.3 643.2,544.6 643.7,544.9 644.2,545.2 645.0,545.3 645.8,545.4 646.3,545.1 646.4,544.7 646.9,544.0 647.2,543.0 647.7,541.6 648.0,540.0 648.5,538.1 649.0,536.0 649.4,534.0 649.7,532.2 650.1,530.2 650.5,528.2 650.8,526.1 651.2,523.6 651.7,521.1 652.0,518.9 652.4,517.0 653.1,515.5 653.4,514.2 653.7,513.3 654.2,512.7 654.5,512.3 655.1,512.3 655.5,512.5 655.9,512.5 656.3,512.3 656.6,511.6 657.0,510.8 657.4,509.8 657.6,508.7 658.1,507.8 658.5,506.8 658.8,506.0 659.2,505.4 659.5,504.9 660.0,504.5 660.3,503.9 660.6,502.9 661.0,501.4 661.3,499.6 661.7,497.2 662.3,494.6 662.7,491.4 663.0,488.2 663.3,484.7 663.7,481.3 664.3,477.6 664.7,474.0 665.2,470.5 665.6,467.0 666.3,463.4 666.8,459.8 667.1,456.0 667.6,452.1 668.1,448.4 668.6,445.0 668.9,441.9 669.3,438.9 669.9,435.9 670.9,433.0 671.7,430.5 672.2,428.2 672.7,425.8 673.3,423.2 673.6,420.5 673.9,417.8 674.7,414.9 675.5,411.9 676.2,409.0 676.7,405.8 677.6,402.5 678.3,399.5 678.7,396.1 679.3,392.8 679.7,389.2 680.0,385.7 680.6,382.2 681.0,378.6 681.7,375.2 682.3,371.9 682.7,368.7 683.4,365.8 683.8,362.8 684.2,360.0 684.6,357.4 685.1,354.2 685.8,351.0 686.2,348.1 686.6,345.5 687.6,343.2 688.8,341.6 689.2,340.5 689.7,340.0 690.5,340.1 691.2,341.4 691.6,343.4 692.1,345.6 692.5,347.8 693.0,350.0 693.5,351.9 694.2,353.7 694.5,355.1 694.9,356.3 695.2,357.2 696.0,358.3 696.4,359.6 696.8,361.3 697.4,363.4 698.1,365.6 698.8,368.1 699.3,370.7 699.8,373.5 700.2,376.0 700.6,378.0 701.2,379.2 701.9,379.9 702.4,380.2 702.8,379.9 703.3,378.9 703.8,377.6 704.1,375.5 704.5,373.2 705.0,371.2 705.6,369.4 706.7,367.8 707.3,366.1 708.0,365.1 708.7,364.3 709.2,364.1 709.5,364.6 710.1,365.6 711.0,366.3 711.7,367.3 712.5,368.6 712.9,370.8 713.4,372.6 713.9,374.4 715.1,376.3 716.2,378.6 716.7,380.9 717.5,383.2 718.6,385.0 719.3,385.9 720.2,385.6 720.7,385.2 721.5,384.9 721.9,383.6 722.4,381.7 722.8,379.5 723.3,377.1 724.0,375.1 724.4,373.4 725.2,371.7 725.8,370.1 726.4,369.0 727.0,368.2 727.8,367.2 728.3,366.2 728.7,365.5 729.2,365.0 729.6,364.5 729.9,364.4 730.2,364.5 730.4,364.6 730.8,365.0 731.2,366.5 731.6,368.2 732.0,369.7 732.4,371.0 733.1,372.3 733.6,373.8 733.9,375.3 734.2,376.7 734.6,378.0 734.7,378.8 735.0,379.8 735.2,381.2 735.5,382.7 735.6,384.5 735.8,386.3 736.2,387.9 736.5,389.6 736.9,391.2 737.2,392.8 737.3,394.4 737.5,396.0 737.7,397.4 738.1,398.7 738.5,400.0 738.8,401.5 739.1,402.6 739.4,403.5 739.7,404.2 739.9,405.0 740.3,405.9 740.7,407.0 741.1,407.7 741.5,408.3 741.8,408.7 742.1,409.1 742.5,409.6 742.8,410.2 743.2,410.7 743.6,411.4 744.1,411.7 744.5,411.9 745.0,412.1 745.3,412.4 745.7,413.1 746.0,414.0 746.5,414.7 746.9,415.2 747.3,415.7 747.6,416.6 748.1,418.0 748.5,419.4 749.0,420.7 749.3,421.7 750.0,422.7 750.3,423.8 750.8,425.1 751.1,426.2 751.6,427.0 751.9,427.4 752.3,427.8 752.5,428.0 752.8,428.6 753.2,429.2 753.6,429.8 753.9,430.4 754.4,431.1 754.7,432.0 755.0,432.9 755.1,433.9 755.4,435.3 755.7,436.5 756.2,437.7 756.5,438.7 756.9,439.7 757.2,440.6 757.6,441.4 758.0,442.2 758.4,443.1 758.7,443.7 759.1,443.9 759.5,444.0 760.1,443.8 760.5,443.7 761.2,443.7 761.5,443.6 761.9,443.7 762.4,443.6 762.9,443.4 763.4,443.9 763.5,445.0 763.9,445.9 764.1,447.0 764.4,447.9 765.0,448.6 765.2,449.4 765.6,450.5 766.1,451.4 766.6,452.2 767.1,452.5 767.4,453.1 767.7,453.5 768.0,454.1 768.2,454.9 768.3,455.7 768.5,456.8 768.6,457.9 769.0,458.8 769.3,459.9 769.7,461.1 770.2,462.4 770.6,463.7 771.1,465.1 771.6,466.5 772.0,467.7 772.3,469.0 772.8,470.6 773.3,471.8 773.8,472.9 774.0,474.0 774.6,475.0 774.9,476.1 775.4,476.8 775.8,477.7 775.9,479.0 776.2,480.1 776.6,481.5 776.9,483.2 777.4,484.5 777.6,485.4 778.0,486.1 778.4,487.0 778.9,487.8 779.3,488.3 779.8,488.9 780.2,489.3 780.5,489.5 781.2,489.8 781.6,490.6 782.0,491.7 782.5,493.0 782.9,494.6 783.2,496.2 783.6,498.1 784.0,500.0 784.5,501.6 784.8,503.4 785.1,505.1 785.5,506.6 785.8,508.1 786.2,509.1 786.6,510.3 787.0,511.5 787.4,512.7 787.7,514.1 788.2,515.5 788.6,516.8 788.9,517.8 789.3,518.4 790.0,519.3 790.5,519.7 790.9,519.8 791.2,520.1 791.7,520.5 792.0,520.9 792.4,521.8 792.9,522.7 793.2,523.5 793.5,524.4 793.9,525.7 794.3,527.3 794.9,528.8 795.2,530.2 795.6,531.6 796.2,532.9 796.6,534.2 796.9,535.8 797.3,537.3 797.6,538.4 798.0,539.5 798.3,540.6 798.6,541.6 799.2,542.6 799.6,543.5 800.1,544.3 800.5,545.0 800.7,545.9 801.2,546.9 801.7,547.9 802.2,548.6 802.5,549.3 803.1,549.9 803.6,550.4 804.2,550.7 804.7,551.2 805.1,551.5 805.5,551.8 805.9,551.8 806.3,551.8 806.8,551.7 807.2,551.4 807.7,551.2 808.3,550.9 808.8,550.4 809.4,549.7 809.8,549.1 810.0,548.4 810.5,547.5 810.9,546.6 811.3,545.7 811.6,544.8 812.0,544.0 812.5,543.2 813.0,542.1 813.3,541.0 813.7,539.9 814.1,538.7 814.5,537.6 814.9,536.1 815.2,534.6 815.6,533.2 815.9,532.0 816.6,530.7 816.9,529.3 817.4,528.0 817.7,526.6 818.0,525.1 818.4,524.2 818.8,523.4 819.1,522.6 819.6,521.7 820.0,521.0 820.4,520.6 820.9,520.3 821.3,519.8 821.8,519.4 822.2,518.6 822.7,517.8 823.1,516.8 823.3,515.6 823.5,513.9 823.7,512.3 823.8,510.3 824.1,508.6 824.4,506.9 824.8,505.2 825.2,503.5 825.4,501.8 825.5,500.0 825.7,498.5 826.1,496.3 826.3,494.6 826.7,492.6 826.9,490.5 827.8,489.0 828.7,487.6 829.5,486.2 829.9,485.2 830.6,484.0 830.9,483.1 831.6,482.5 832.1,482.4 832.7,481.8 833.2,480.7 833.7,479.6 834.1,479.0 834.9,478.2 835.3,477.6 835.9,477.4 836.4,476.5 837.1,475.7 838.2,475.5 839.0,475.2 839.6,475.4 840.5,475.1 841.0,474.5 841.8,474.6 842.7,474.7 843.4,475.3 844.0,476.1 844.4,476.8 845.3,478.0 846.1,478.7 846.5,479.6 846.9,480.4 847.2,481.2 848.5,482.4 848.9,483.6 849.8,484.7 850.5,485.9 851.3,487.3 851.7,488.6 852.1,490.0 852.5,491.8 853.1,493.5 853.6,494.2 854.7,494.4 855.5,494.8 855.8,495.1 856.2,495.5 857.1,495.6 857.9,496.1 858.3,496.2 858.7,496.5 860.0,497.1 860.6,498.0 860.9,499.0 861.5,500.2 862.0,501.5 862.6,502.6 863.6,503.6 864.4,504.8 864.9,505.8 865.8,506.5 866.2,507.4 866.6,508.2 866.9,508.8 867.4,509.2 868.1,509.9 868.6,510.5 869.2,510.9 870.1,511.8 870.7,512.8 871.5,513.5 872.1,514.0 872.4,514.1 872.9,513.9 873.4,513.8 873.9,513.4 874.2,513.0 874.6,512.3 875.0,511.4 875.6,510.2 876.1,509.1 876.5,508.3 876.9,508.0 877.4,507.5 877.9,507.2 878.2,506.6 878.8,506.1 879.0,505.8 879.1,505.7 879.4,505.6 879.8,505.4 880.2,505.3 880.4,505.3 880.7,505.8 881.3,506.4 881.7,507.1 882.0,508.1 882.4,509.4 882.7,511.1 883.0,512.8 883.1,513.8 883.6,515.1 884.0,516.6 884.4,518.3 884.8,519.8 884.9,521.2 885.4,522.3 885.9,523.2 886.3,524.1 886.6,525.6 887.0,527.1 887.4,528.2 888.0,529.4 888.4,531.0 888.7,532.7 888.9,534.6 889.2,536.6 889.7,538.8 890.0,541.0 890.4,543.3 890.8,545.6 891.2,547.6 891.7,549.3 892.6,550.9 893.2,552.2 893.8,553.2 894.3,554.0 894.9,554.7 895.5,555.1 896.0,555.4 896.4,555.9 896.9,556.4 897.3,556.9 897.8,557.4 898.1,557.9 898.4,558.4 898.8,558.8 899.8,559.2 900.8,559.6 901.2,559.8 901.7,559.9 902.1,560.0 903.0,559.9 903.8,559.5 904.2,559.0 904.6,558.5 905.2,558.2 906.1,557.8 906.4,557.3 906.8,556.7 907.4,556.0 908.0,555.5 908.6,555.1 909.1,555.0 909.7,554.9 910.2,554.6 911.2,554.5 912.3,554.6 913.6,554.9 913.9,555.3 914.6,555.7 915.0,555.9 915.9,556.0 916.7,555.9 917.0,555.8 917.5,555.4 918.1,555.0 918.7,554.7 919.1,554.5 919.5,554.5 919.9,554.8 920.4,555.2 921.0,555.5 921.5,556.0 922.3,556.5 922.6,557.1 923.6,557.5 924.1,557.8 924.5,557.9 925.3,557.6 925.7,557.2 926.1,556.8 926.4,556.4 926.8,556.1 927.2,555.6 927.9,555.1 928.3,554.2 928.9,553.2 929.7,552.2 930.0,551.4 930.4,550.3 930.9,549.0 931.2,547.4 931.8,545.8 932.4,543.8 933.3,541.8 933.7,540.1 934.0,538.3 935.0,536.5 935.6,534.9 935.9,533.4 936.1,532.0 936.5,530.6 936.8,529.4 937.1,528.2 937.4,527.1 937.5,526.2 937.9,525.2 938.2,523.9 938.6,522.8 939.0,521.6 939.4,520.4 939.8,519.2 940.1,518.1 940.4,516.9 940.7,515.4 941.1,514.1 941.4,513.0 941.7,511.6 941.9,510.5 942.0,509.4 942.3,508.2 942.5,507.2 942.8,506.0 943.0,504.7 943.3,503.3 943.6,502.1 944.0,500.8 944.4,499.4 944.7,497.9 945.0,496.8 945.4,495.7 945.7,495.0 945.8,494.7 946.0,494.2 946.4,493.6 946.9,493.4 947.3,493.6 947.7,493.9 948.0,494.5 948.3,495.0 948.6,495.3 949.0,495.4 949.3,495.9 949.6,496.5 950.0,497.1 950.5,497.2 950.8,497.0 951.1,496.6 951.5,496.5 951.8,496.6 952.0,496.6 952.6,496.1 953.0,495.4 953.3,494.2 953.7,493.2 954.2,492.0 954.5,490.5 954.7,488.3 955.1,485.7 955.4,482.8 955.7,480.4 956.1,477.8 956.3,475.1 956.6,472.3 956.7,469.4 956.9,466.6 957.2,463.9 957.5,461.4 957.8,459.1 958.2,457.1 958.4,455.3 958.7,453.8 959.1,452.3 959.6,451.0 960.0,449.7 960.3,448.4 960.8,447.0 961.0,445.8 961.4,444.3 961.8,442.9 962.3,441.5 962.7,440.2 963.1,439.2 963.4,438.6 963.8,438.0 964.1,437.8 964.5,437.6 964.9,437.5 965.2,437.5 965.7,437.5 966.1,437.4 966.5,437.5 966.9,437.8 967.2,438.4 967.8,439.2 968.4,440.0 968.8,441.2 969.2,442.6 969.6,444.4 970.0,446.9 970.4,449.5 970.7,452.3 971.1,455.2 971.6,458.4 971.9,461.5 972.2,464.4 972.6,467.3 973.1,470.3 973.2,472.8 973.5,475.0 973.8,477.2 974.2,479.2 974.4,480.8 974.7,482.5 975.1,484.2 975.5,485.4 975.8,486.1 976.1,486.5 976.3,486.7 976.7,486.8 977.0,486.8 977.4,486.9 977.5,486.8 977.9,486.8 978.3,487.0 978.7,487.7 979.0,488.9 979.5,490.3 979.8,491.6 980.1,492.7 980.6,493.5 980.9,494.1 981.2,494.5 981.6,494.9 981.9,495.2 982.3,495.4 982.6,495.7 982.9,496.4 983.2,497.2 983.5,498.4 983.8,499.7 984.3,501.3 984.5,502.9 984.9,504.6 985.2,506.1 985.5,507.5 985.6,508.5 985.8,509.8 986.1,510.9 986.5,512.2 986.9,513.3 987.2,514.7 987.5,516.2 987.8,517.7 988.2,518.9 988.6,520.0 989.0,521.2 989.1,522.4 989.5,523.5 989.6,524.7 990.0,525.8 990.3,526.7 990.7,527.7 991.0,528.7 991.5,530.0 991.8,531.4 992.2,532.7 992.7,534.3 993.4,536.1 994.2,537.9 994.8,539.8 995.2,541.6 996.1,543.7 996.7,545.6 997.3,547.4 997.6,549.0 998.1,550.3 998.5,551.4 998.8,552.1 999.5,552.9 1000.0,553.8 1000.4,554.7 1001.1,555.3 1001.4,555.7 1001.9,556.1 1002.2,556.5 1002.8,556.8 1003.3,557.4 1004.0,557.8 1004.4,557.8 1005.0,557.5 1005.9,556.9 1006.3,556.4 1006.9,555.9 1007.5,555.6 1008.6,555.3 1009.0,555.0 1009.4,554.8 1009.8,554.8 1010.2,554.9 1011.0,555.4 1011.5,555.8 1011.8,556.0 1012.7,556.0 1013.4,556.0 1013.8,555.8 1014.5,555.4 1015.0,555.0 1015.9,554.6 1017.0,554.5 1018.3,554.6 1018.9,554.8 1019.3,555.0 1020.1,555.1 1020.5,555.3 1021.2,555.9 1021.7,556.5 1022.1,557.2 1022.4,557.7 1023.3,558.1 1024.0,558.5 1024.4,558.9 1024.9,559.5 1025.7,559.9 1026.5,560.0 1027.0,559.9 1027.5,559.8 1027.9,559.6 1028.9,559.2 1029.9,558.8 1030.3,558.4 1030.7,557.9 1030.9,557.4 1031.3,556.9 1031.7,556.5 1032.0,555.9 1032.7,555.4 1033.1,555.1 1033.5,554.8 1034.2,554.1 1034.6,553.2 1035.5,552.6 1036.1,552.4 1036.8,552.3 1037.3,552.3 1037.7,551.9 1038.6,551.5 1039.2,551.0 1039.8,550.8 1040.2,550.8 1040.5,550.6 1040.8,550.3 1041.2,549.7 1042.3,549.3 1042.7,549.4 1043.5,549.4 1044.0,549.2 1044.7,549.0 1045.2,548.2 1045.8,547.3 1046.2,546.2 1046.5,544.7 1047.3,542.9 1047.5,541.0 1047.9,538.9 1048.6,536.8 1049.0,534.6 1049.3,532.6 1049.6,530.7 1049.9,528.6 1050.3,526.4 1050.7,524.3 1051.0,522.4 1051.3,520.6 1051.7,518.9 1052.2,517.4 1052.9,516.1 1053.4,514.9 1053.7,514.0 1054.3,513.4 1055.2,512.8 1055.7,511.8 1056.6,510.9 1057.2,510.5 1057.7,509.9 1058.4,509.2 1058.9,508.8 1059.3,508.2 1059.6,507.4 1060.0,506.5 1060.9,505.8 1061.4,504.8 1062.2,503.6 1063.2,502.6 1063.9,501.5 1064.3,500.3 1064.9,499.2 1065.3,498.1 1065.6,497.2 1067.0,496.6 1067.4,496.2 1067.9,496.1 1068.7,495.6 1069.3,495.4 1069.8,495.1 1070.2,494.7 1071.0,494.3 1072.2,494.0 1072.7,493.4 1073.3,491.8 1073.7,490.0 1074.1,488.6 1074.4,487.3 1075.3,486.2 1076.0,484.9 1076.9,483.8 1077.2,482.7 1078.4,481.6 1078.9,480.9 1079.3,480.1 1079.7,479.2 1080.4,478.4 1081.3,477.1 1081.7,476.4 1082.5,475.6 1082.9,474.9 1084.0,474.6 1084.9,474.7 1085.3,475.1 1086.3,475.6 1086.8,475.4 1087.4,475.7 1088.5,475.8 1089.1,476.7 1089.9,477.7 1090.5,477.8 1091.0,478.3 1091.7,479.1 1092.1,479.6 1092.7,480.7 1093.1,481.8 1093.5,482.3 1094.2,482.5 1094.9,483.0 1095.3,483.9 1095.9,484.9 1096.3,485.8 1097.1,487.1 1098.1,488.4 1098.7,489.7 1098.9,491.6 1099.1,493.6 1099.3,495.2 1099.5,497.1 1099.7,499.0 1099.9,500.5 1100.3,502.1 1100.6,503.8 1100.8,505.5 1101.1,507.1 1101.4,508.7 1101.8,510.4 1101.9,512.1 1102.1,513.7 1102.3,515.3 1102.5,516.6 1102.8,517.6 1103.1,518.3 1103.9,519.1 1104.4,519.5 1104.8,519.8 1105.1,520.1 1105.6,520.5 1105.9,520.9 1106.3,521.8 1106.7,522.7 1107.1,523.5 1107.4,524.4 1107.8,525.7 1108.2,527.3 1108.7,528.8 1109.1,530.2 1109.5,531.6 1110.1,532.9 1110.5,534.2 1110.7,535.8 1111.1,537.3 1111.5,538.4 1111.9,539.5 1112.2,540.6 1112.5,541.6 1113.1,542.6 1113.5,543.5 1114.0,544.3 1114.4,545.0 1114.6,545.9 1115.1,546.9 1115.6,547.9 1116.1,548.6 1116.4,549.3 1117.0,549.9 1117.5,550.4 1118.0,550.7 1118.5,550.9 1119.0,551.1 1119.4,551.2 1119.9,551.1 1120.0,550.9" fill="none" stroke="#c084fc" stroke-width="3"/>
    <text x="620" y="590" font-family="system-ui, -apple-system, sans-serif" font-size="12" fill="#94a3b8">0 km</text>
    <text x="1120" y="590" text-anchor="end" font-family="system-ui, -apple-system, sans-serif" font-size="12" fill="#94a3b8">40.7 km</text>
    <text x="615" y="345" text-anchor="end" font-family="system-ui, -apple-system, sans-serif" font-size="11" fill="#94a3b8">1760m</text>
    <text x="615" y="560" text-anchor="end" font-family="system-ui, -apple-system, sans-serif" font-size="11" fill="#94a3b8">656m</text>
  </g>

  <g>
    <rect x="680" y="40" width="500" height="330" rx="14" fill="#ffffff" fill-opacity="0.08" stroke="#c084fc" stroke-opacity="0.4"/>
    <text x="700" y="60" font-family="system-ui, -apple-system, 'Noto Sans TC', sans-serif" font-size="14" fill="#94a3b8">GPS 軌跡 · 台中和平</text>
    <polyline points="1140.0,104.4 1120.6,107.4 1111.7,115.5 1101.7,124.3 1090.7,132.5 1074.2,141.5 1065.3,150.5 1050.0,153.2 1054.2,163.8 1046.5,162.3 1040.2,157.5 1031.9,155.7 1027.5,149.0 1033.9,142.5 1030.6,137.5 1029.6,130.2 1025.6,124.8 1016.2,122.8 1005.6,117.4 998.4,110.5 990.7,100.8 983.8,95.7 973.1,84.1 964.5,78.2 952.5,76.2 943.2,71.8 926.1,73.4 922.5,83.2 911.6,88.4 906.1,95.5 901.4,106.2 895.7,115.1 886.8,118.5 883.6,130.9 880.4,141.4 872.6,152.4 876.7,167.5 870.5,182.7 862.4,189.4 848.3,191.5 838.1,198.0 834.6,202.9 824.4,207.0 826.0,209.7 827.7,212.7 831.1,214.3 828.5,217.3 823.8,219.2 816.5,222.3 806.7,224.0 798.1,224.8 790.7,223.8 787.4,224.7 783.5,225.0 788.2,226.6 781.3,226.8 773.6,225.8 764.9,224.4 753.2,226.2 746.9,226.3 741.7,223.4 733.3,226.3 729.1,227.1 728.0,229.6 717.7,227.9 708.3,229.8 703.5,232.4 700.5,236.9 711.1,236.4 722.4,238.9 725.0,246.1 730.8,248.3 735.0,252.6 746.3,252.6 754.1,253.9 746.9,256.1 747.3,263.6 745.1,268.4 744.3,272.2 739.1,272.0 749.2,275.0 744.3,274.9 739.4,269.8 743.0,270.1 744.9,266.4 748.5,260.1 751.1,256.7 750.5,252.9 739.8,253.7 737.7,250.3 738.4,246.6 742.0,244.3 753.8,239.0 766.4,239.7 778.3,240.2 784.5,251.4 793.8,257.5 806.2,250.0 821.9,246.9 831.2,253.3 845.0,256.1 852.5,249.2 863.4,242.1 879.9,245.5 885.9,238.7 897.9,235.6 912.0,236.2 918.3,230.3 927.2,224.6 932.9,227.6 939.0,228.9 941.9,226.4 946.7,224.7 950.5,222.5 959.6,225.5 959.5,231.7 958.6,241.3 948.4,249.3 937.8,252.9 946.4,262.0 959.7,256.6 964.7,261.4 960.3,267.0 942.5,276.6 928.7,275.1 931.6,282.8 921.5,279.0 907.6,280.1 897.8,281.5 886.6,283.6 887.4,290.9 895.5,302.0 900.9,304.4 903.8,308.1 902.7,310.3 909.1,311.0 906.9,314.0 903.9,318.0 898.4,321.4 889.8,321.3 882.4,319.1 875.9,323.4 870.0,327.9 872.2,330.9 878.2,333.3 884.1,334.2 888.7,339.0 897.0,340.6 906.7,341.4 912.3,346.0 920.4,349.9 931.0,346.8 931.0,342.7 928.2,335.6 927.8,331.3 928.7,324.4 925.9,327.2 920.7,321.0 916.5,316.1 909.3,320.1 907.2,315.1 908.1,312.1 902.9,310.9 900.7,308.2 901.3,306.1 896.2,305.2 888.9,293.0 885.4,284.4 897.8,283.6 903.7,280.1 918.3,277.5 931.6,282.8 928.2,275.4 942.5,276.6 960.9,267.9 964.5,261.7 959.7,256.6 946.4,262.0 938.1,252.8 948.4,249.3 958.6,241.3 956.5,243.1 947.9,245.7 932.1,250.9 925.0,246.1 923.1,239.1 918.0,235.8 909.5,236.6 893.6,234.6 886.3,240.1 875.7,245.2 861.7,242.6 849.5,251.4 839.3,256.9 830.2,252.3 816.6,249.1 802.5,250.7 790.9,260.2 783.1,248.2 774.5,240.5 764.0,238.9 750.1,240.3 742.6,244.4 738.7,247.2 737.7,250.3 738.3,253.6 750.0,253.1 751.6,255.5 748.3,258.9 745.5,266.3 742.4,269.1 740.3,270.4 743.0,274.7 750.3,273.2" fill="none" stroke="#fbbf24" stroke-width="3" stroke-linejoin="round"/>
  </g>

  <text x="60" y="605" font-family="system-ui, -apple-system, sans-serif" font-size="14" fill="#94a3b8">yrciou.github.io/sportsblog</text>
</svg>