<?xml version="1.0" encoding="UTF-8"?>
<svg xmlns="http://www.w3.org/2000/svg" width="1200" height="630" viewBox="0 0 1200 630">
  <defs>
    <linearGradient id="bg" x1="0" y1="0" x2="1" y2="1">
      <stop offset="0%" stop-color="#0b1e2d"/>
      <stop offset="100%" stop-color="#1e4835"/>
    </linearGradient>
    <linearGradient id="eleFill" x1="0" y1="0" x2="0" y2="1">
      <stop offset="0%" stop-color="#5ccf8b" stop-opacity="0.85"/>
      <stop offset="100%" stop-color="#5ccf8b" stop-opacity="0.05"/>
    </linearGradient>
    <filter id="softShadow" x="-10%" y="-10%" width="120%" height="120%">
      <feGaussianBlur stdDeviation="3"/>
    </filter>
  </defs>
  <rect width="1200" height="630" fill="url(#bg)"/>

  <!-- Subtle topo lines -->
  <g opacity="0.10" stroke="#5ccf8b" stroke-width="1" fill="none">
    <path d="M0,200 Q300,160 600,220 T1200,180"/>
    <path d="M0,280 Q300,240 600,300 T1200,260"/>
    <path d="M0,360 Q300,320 600,380 T1200,340"/>
    <path d="M0,440 Q300,400 600,460 T1200,420"/>
    <path d="M0,520 Q300,480 600,540 T1200,500"/>
  </g>

  <!-- Brand pill -->
  <rect x="60" y="60" width="330" height="44" rx="22" fill="#5ccf8b" opacity="0.92"/>
  <text x="225" y="90" text-anchor="middle" font-family="system-ui, -apple-system, 'Noto Sans TC', sans-serif" font-size="22" font-weight="700" fill="#0b1e2d">YR 運動研究室 · 賽道分析</text>

  <!-- Title -->
  <text x="60" y="170" font-family="system-ui, -apple-system, 'Noto Sans TC', sans-serif" font-size="60" font-weight="800" fill="#f8fafc">2026 找茶越野</text>
  <text x="60" y="240" font-family="system-ui, -apple-system, 'Noto Sans TC', sans-serif" font-size="46" font-weight="700" fill="#5ccf8b">採茶組 12K · 賽道深度拆解</text>

  <!-- Subtitle -->
  <text x="60" y="290" font-family="system-ui, -apple-system, 'Noto Sans TC', sans-serif" font-size="22" font-weight="500" fill="#cbd5e1">GPS 軌跡 × 坡度分佈 × 可跑性戰術地圖</text>

  <!-- Stat cards (four side-by-side, bottom-left) -->
  <g font-family="system-ui, -apple-system, 'Noto Sans TC', sans-serif" fill="#f8fafc">
    <g>
      <rect x="60" y="340" width="130" height="110" rx="14" fill="#ffffff" fill-opacity="0.08" stroke="#5ccf8b" stroke-opacity="0.4"/>
      <text x="125" y="380" text-anchor="middle" font-size="15" fill="#94a3b8">總里程</text>
      <text x="125" y="418" text-anchor="middle" font-size="32" font-weight="800">12.23</text>
      <text x="125" y="440" text-anchor="middle" font-size="14" fill="#94a3b8">km</text>
    </g>
    <g>
      <rect x="205" y="340" width="130" height="110" rx="14" fill="#ffffff" fill-opacity="0.08" stroke="#5ccf8b" stroke-opacity="0.4"/>
      <text x="270" y="380" text-anchor="middle" font-size="15" fill="#94a3b8">總爬升</text>
      <text x="270" y="418" text-anchor="middle" font-size="32" font-weight="800">+527</text>
      <text x="270" y="440" text-anchor="middle" font-size="14" fill="#94a3b8">m</text>
    </g>
    <g>
      <rect x="350" y="340" width="130" height="110" rx="14" fill="#ffffff" fill-opacity="0.08" stroke="#5ccf8b" stroke-opacity="0.4"/>
      <text x="415" y="380" text-anchor="middle" font-size="15" fill="#94a3b8">最高海拔</text>
      <text x="415" y="418" text-anchor="middle" font-size="32" font-weight="800">589</text>
      <text x="415" y="440" text-anchor="middle" font-size="14" fill="#94a3b8">m</text>
    </g>
    <g>
      <rect x="60" y="470" width="420" height="100" rx="14" fill="#ffffff" fill-opacity="0.08" stroke="#5ccf8b" stroke-opacity="0.4"/>
      <text x="85" y="502" font-size="15" fill="#94a3b8">可跑路段 &lt;5% 坡度</text>
      <text x="85" y="546" font-size="38" font-weight="800" fill="#5ccf8b">34.8%</text>
      <text x="270" y="502" font-size="15" fill="#94a3b8">垂直爬升比例 m/km</text>
      <text x="270" y="546" font-size="38" font-weight="800" fill="#fbbf24">43.1</text>
    </g>
  </g>

  <!-- Elevation profile (bottom right) -->
  <g>
    <rect x="600" y="310" width="580" height="310" rx="14" fill="#ffffff" fill-opacity="0.06" stroke="#5ccf8b" stroke-opacity="0.4"/>
    <text x="620" y="330" font-family="system-ui, -apple-system, 'Noto Sans TC', sans-serif" font-size="14" fill="#94a3b8">海拔剖面 (m)</text>
    <polygon points="620,560 620.0,550.5 625.1,549.3 629.5,547.6 634.1,548.2 639.5,545.6 644.7,540.7 650.0,536.0 655.4,530.3 660.4,526.7 664.7,520.8 669.3,514.2 673.6,512.9 678.2,518.4 682.6,526.1 687.3,529.0 691.8,531.2 696.5,536.1 701.2,541.5 706.6,549.1 711.7,553.7 716.3,554.9 720.6,555.6 725.1,554.8 729.7,553.3 734.4,552.9 738.7,553.4 743.8,554.1 749.1,556.4 753.7,558.1 759.0,559.1 763.5,560.0 768.5,559.1 773.3,558.5 778.2,559.9 783.1,559.7 787.6,557.2 792.3,555.9 796.8,555.7 801.9,554.0 806.4,549.2 811.4,548.0 816.0,554.4 820.4,557.9 825.4,555.6 830.5,549.9 835.4,545.8 840.6,543.5 845.1,539.2 849.6,529.8 854.0,518.2 858.7,511.0 863.7,504.8 868.6,499.5 873.0,489.0 878.5,468.9 883.5,446.0 888.3,431.1 893.7,425.2 898.3,418.9 903.4,407.3 908.3,393.0 913.5,382.8 918.1,376.4 922.6,363.4 927.6,352.3 933.0,348.5 937.7,346.7 942.1,344.2 946.4,340.0 951.2,340.3 956.4,349.1 961.8,347.0 968.0,358.7 973.3,371.2 978.1,376.4 982.8,376.2 987.3,377.3 991.9,381.9 996.6,386.2 1001.1,389.6 1006.0,400.0 1010.8,407.0 1015.9,413.8 1021.1,415.8 1026.8,419.1 1031.8,424.5 1036.4,433.4 1041.2,442.4 1046.3,448.4 1051.0,453.2 1055.7,461.4 1060.9,472.4 1065.2,478.3 1070.0,484.3 1074.8,492.5 1079.7,501.7 1085.4,515.9 1090.0,524.2 1095.2,527.7 1100.7,530.0 1105.1,534.8 1110.3,539.2 1115.0,542.2 1120.0,543.0 1120,560" fill="url(#eleFill)"/>
    <polyline points="620.0,550.5 625.1,549.3 629.5,547.6 634.1,548.2 639.5,545.6 644.7,540.7 650.0,536.0 655.4,530.3 660.4,526.7 664.7,520.8 669.3,514.2 673.6,512.9 678.2,518.4 682.6,526.1 687.3,529.0 691.8,531.2 696.5,536.1 701.2,541.5 706.6,549.1 711.7,553.7 716.3,554.9 720.6,555.6 725.1,554.8 729.7,553.3 734.4,552.9 738.7,553.4 743.8,554.1 749.1,556.4 753.7,558.1 759.0,559.1 763.5,560.0 768.5,559.1 773.3,558.5 778.2,559.9 783.1,559.7 787.6,557.2 792.3,555.9 796.8,555.7 801.9,554.0 806.4,549.2 811.4,548.0 816.0,554.4 820.4,557.9 825.4,555.6 830.5,549.9 835.4,545.8 840.6,543.5 845.1,539.2 849.6,529.8 854.0,518.2 858.7,511.0 863.7,504.8 868.6,499.5 873.0,489.0 878.5,468.9 883.5,446.0 888.3,431.1 893.7,425.2 898.3,418.9 903.4,407.3 908.3,393.0 913.5,382.8 918.1,376.4 922.6,363.4 927.6,352.3 933.0,348.5 937.7,346.7 942.1,344.2 946.4,340.0 951.2,340.3 956.4,349.1 961.8,347.0 968.0,358.7 973.3,371.2 978.1,376.4 982.8,376.2 987.3,377.3 991.9,381.9 996.6,386.2 1001.1,389.6 1006.0,400.0 1010.8,407.0 1015.9,413.8 1021.1,415.8 1026.8,419.1 1031.8,424.5 1036.4,433.4 1041.2,442.4 1046.3,448.4 1051.0,453.2 1055.7,461.4 1060.9,472.4 1065.2,478.3 1070.0,484.3 1074.8,492.5 1079.7,501.7 1085.4,515.9 1090.0,524.2 1095.2,527.7 1100.7,530.0 1105.1,534.8 1110.3,539.2 1115.0,542.2 1120.0,543.0" fill="none" stroke="#5ccf8b" stroke-width="3"/>
    <text x="620" y="590" font-family="system-ui, -apple-system, sans-serif" font-size="12" fill="#94a3b8">0 km</text>
    <text x="1120" y="590" text-anchor="end" font-family="system-ui, -apple-system, sans-serif" font-size="12" fill="#94a3b8">11.6 km</text>
    <text x="615" y="345" text-anchor="end" font-family="system-ui, -apple-system, sans-serif" font-size="11" fill="#94a3b8">586m</text>
    <text x="615" y="560" text-anchor="end" font-family="system-ui, -apple-system, sans-serif" font-size="11" fill="#94a3b8">173m</text>
  </g>

  <!-- Track map (top right small inset) -->
  <g>
    <rect x="680" y="40" width="500" height="330" rx="14" fill="#ffffff" fill-opacity="0.06" stroke="#5ccf8b" stroke-opacity="0.4"/>
    <text x="700" y="60" font-family="system-ui, -apple-system, 'Noto Sans TC', sans-serif" font-size="14" fill="#94a3b8">GPS 軌跡 · 坪林</text>
    <polyline points="1082.8,270.8 1085.9,272.5 1088.6,271.9 1090.4,268.9 1093.1,267.1 1095.0,270.1 1095.9,273.4 1096.8,277.1 1098.1,280.5 1098.6,283.4 1096.0,286.0 1093.6,288.9 1090.7,291.1 1087.5,293.1 1084.5,295.3 1081.5,297.1 1078.1,298.6 1076.1,301.0 1074.4,304.0 1071.5,306.0 1071.3,309.0 1073.4,311.9 1076.4,313.6 1079.6,314.8 1082.5,316.6 1085.8,317.4 1088.4,319.7 1089.8,322.8 1091.0,326.2 1092.0,329.4 1093.8,332.4 1097.3,333.6 1097.7,336.6 1101.1,337.9 1104.6,339.1 1108.0,340.2 1111.6,339.9 1113.5,339.0 1116.7,337.0 1119.9,335.1 1123.7,333.2 1127.1,332.3 1129.2,334.3 1132.5,336.6 1135.3,338.8 1137.2,341.8 1137.0,345.3 1136.2,348.9 1138.7,350.0 1139.4,346.7 1140.0,342.9 1139.0,339.4 1136.5,336.9 1133.2,334.8 1130.5,332.3 1127.8,330.0 1124.1,330.3 1121.0,332.0 1117.8,333.9 1114.6,335.5 1110.3,336.9 1106.6,337.3 1102.8,336.9 1098.9,334.8 1098.5,331.6 1099.7,328.2 1100.2,324.9 1097.7,322.6 1094.7,320.9 1093.9,316.7 1093.6,313.0 1090.0,310.8 1086.3,310.6 1082.4,310.4 1078.9,311.4 1076.4,310.5 1073.2,308.5 1072.9,304.7 1075.3,302.0 1076.2,298.6 1077.0,295.1 1077.3,291.5 1076.9,287.5 1075.2,287.1 1072.3,289.2 1069.2,291.1 1066.1,292.4 1062.5,293.8 1058.6,295.3 1055.1,296.7 1051.8,298.2 1048.2,299.2 1044.9,299.8 1041.1,300.6 1037.5,301.7 1033.9,302.4 1030.1,301.6 1026.6,300.7 1022.4,300.4 1018.7,300.4 1015.1,299.9 1011.2,299.6 1007.1,300.2 1003.4,300.3 999.5,298.9 995.1,297.1 991.5,295.0 988.1,293.2 987.3,291.9 983.4,290.0 979.3,287.7 976.0,285.4 972.7,283.8 971.4,281.2 971.2,281.4 970.1,284.6 968.9,288.0 966.0,289.6 963.3,287.7 959.8,286.5 956.4,285.1 953.0,283.0 949.8,280.4 945.6,278.5 941.8,277.1 937.7,276.0 933.0,275.2 928.9,274.5 924.0,273.9 921.9,273.9 918.2,274.5 914.6,275.6 910.9,277.4 908.2,280.0 907.1,284.5 906.2,288.5 904.9,292.0 903.9,295.5 900.5,296.9 897.3,298.5 896.2,299.2 892.8,300.3 889.2,301.9 885.7,303.8 882.4,305.9 879.4,308.3 876.9,311.0 874.0,314.4 872.1,317.4 870.2,320.2 867.5,322.7 863.7,323.3 859.5,323.3 855.1,322.9 851.5,322.6 847.8,322.8 844.6,323.0 840.4,322.0 837.6,319.9 834.4,317.9 831.1,316.4 826.4,313.9 823.8,311.5 821.7,307.8 820.3,304.6 818.0,301.9 814.2,301.1 810.5,301.4 806.7,302.5 802.9,303.9 799.4,304.8 794.3,305.7 790.5,306.3 786.4,307.3 782.9,308.4 780.0,310.6 778.2,313.5 776.4,316.5 773.8,318.8 770.1,319.5 766.2,320.5 760.9,321.2 757.0,321.6 753.4,322.3 749.7,323.1 745.6,323.2 741.2,320.9 738.0,318.5 734.4,315.5 732.5,312.1 731.8,308.8 731.8,305.2 732.6,300.5 734.4,297.2 737.1,293.9 739.4,291.1 741.5,288.3 743.6,285.6 745.4,282.4 747.2,279.2 749.9,275.7 752.6,272.9 754.9,270.2 754.7,267.7 751.8,266.2 753.4,263.3 756.0,260.9 759.1,258.3 762.6,256.3 766.0,254.5 768.7,251.6 770.2,248.4 766.4,245.9 763.0,246.8 759.5,248.8 755.8,251.3 752.6,252.9 748.0,254.2 743.3,254.7 741.1,252.4 738.0,252.3 735.4,254.7 732.7,257.0 728.7,258.6 725.0,259.0 721.5,258.4 716.2,254.7 713.0,251.5 710.4,248.2 708.0,245.6 705.7,242.2 704.8,238.2 704.7,234.3 705.2,230.8 705.2,229.4 702.1,231.2 700.0,229.2 700.9,226.1 701.0,223.2 700.6,220.1 702.9,217.2 704.9,213.8 706.9,210.6 708.2,207.5 709.1,204.0 709.6,200.3 709.9,196.3 710.5,191.5 710.8,188.1 711.2,184.5 711.5,180.4 711.6,176.7 712.4,172.7 713.4,169.4 714.7,165.4 716.5,161.9 718.1,157.7 719.1,154.3 719.7,150.8 720.3,147.0 721.6,143.6 723.1,140.5 724.6,137.3 726.2,135.0 728.7,131.4 730.9,128.3 733.2,124.2 734.2,120.7 733.6,117.0 732.7,113.5 730.9,108.6 729.9,104.5 728.5,101.3 727.5,97.4 728.3,94.0 728.4,90.4 728.4,86.8 727.6,83.1 727.0,79.7 726.4,76.2 725.1,73.0 723.8,70.0 726.7,70.8 729.9,72.6 733.3,74.0 736.2,76.6 739.3,78.6 743.6,78.7 747.3,78.0 751.3,79.9 753.0,82.9 755.6,84.2 759.0,85.5 762.1,87.3 765.0,89.0 765.4,89.2 761.9,88.0 758.6,86.3 755.9,85.8 756.4,89.2 758.4,92.3 760.5,95.1 762.5,98.7 765.4,100.9 767.7,101.7 774.3,101.6 778.2,104.1 781.7,106.1 785.2,107.7 789.5,110.2 792.2,112.5 796.3,115.1 798.6,118.1 800.7,120.8 804.0,123.4 806.9,125.3 810.4,126.6 814.5,127.6 816.4,128.2 821.7,127.6 825.1,128.9 827.5,131.8 829.5,135.1 831.1,138.4 832.4,142.0 835.8,141.4 839.4,140.0 843.3,139.7 846.9,140.9 847.9,141.4 851.0,141.5 854.9,142.6 858.2,143.9 861.5,145.6 865.3,145.5 869.0,144.6 872.3,142.8 875.0,140.2 874.5,141.3 878.0,140.4 882.9,139.5 887.5,138.9 893.8,137.6 898.7,135.9 902.0,134.2 903.9,130.7 907.6,131.3 911.8,132.0 914.8,134.1 917.0,137.0 919.8,141.6 921.7,144.9 923.7,148.1 926.7,150.2 928.7,151.0 933.9,152.0 936.5,154.6 938.5,157.5 942.7,160.5 946.4,161.5 949.4,163.4 949.9,166.7 948.8,170.8 948.4,174.2 950.9,174.6 954.8,170.6 958.3,168.8 962.1,168.3 960.2,168.4 963.4,170.0 967.0,171.3 971.0,171.6 974.9,171.4 978.7,171.7 983.0,170.2 985.0,167.4 986.7,164.4 982.6,165.1 979.5,163.7 982.6,160.7 985.9,159.0 989.7,157.2 990.8,154.0 987.6,152.0 987.0,150.2 990.7,150.9 992.7,151.2 997.6,151.6 1000.7,149.2 1004.0,150.4 1004.0,154.3 1003.8,157.6 1008.4,158.1 1012.0,158.5 1015.8,158.9 1017.6,161.8 1021.9,163.2 1023.4,166.7 1025.6,170.1 1028.5,172.3 1033.4,172.8 1037.2,173.3 1039.7,176.0 1040.6,177.2 1043.5,179.3 1048.5,181.2 1052.9,182.2 1056.7,182.8 1060.2,183.9 1063.1,186.6 1064.7,189.9 1062.7,194.9 1061.6,198.2 1061.3,201.7 1061.9,205.4 1064.8,209.3 1066.7,212.7 1068.9,215.5 1070.5,220.5 1072.3,222.7 1076.0,222.9 1078.2,226.1 1080.6,229.1 1082.8,232.2 1083.4,236.3 1081.0,240.3 1079.3,243.7 1079.6,245.4 1076.2,248.7 1076.8,253.4 1079.3,256.5 1081.8,259.9 1083.8,263.3 1084.9,267.4 1083.9,270.4" fill="none" stroke="#fbbf24" stroke-width="3" stroke-linejoin="round"/>
  </g>

  <!-- URL footer -->
  <text x="60" y="605" font-family="system-ui, -apple-system, sans-serif" font-size="14" fill="#94a3b8">yrciou.github.io/sportsblog</text>
</svg>